<svg id="图层_1" data-name="图层 1" xmlns="http://www.w3.org/2000/svg" xmlns:xlink="http://www.w3.org/1999/xlink" viewBox="0 0 388.71 269.31"><defs><style>.cls-1{fill:url(#未命名的渐变_3);}.cls-2{fill:url(#未命名的渐变_30);}.cls-3{fill:url(#未命名的渐变_31);}</style><linearGradient id="未命名的渐变_3" x1="194.36" y1="269.31" x2="194.36" gradientUnits="userSpaceOnUse"><stop offset="0.2" stop-color="#41b782"/><stop offset="1" stop-color="#86d169"/></linearGradient><linearGradient id="未命名的渐变_30" x1="106.9" y1="266.36" x2="106.9" y2="70.71" gradientUnits="userSpaceOnUse"><stop offset="0" stop-color="#0d2036"/><stop offset="1" stop-color="#35485d"/></linearGradient><linearGradient id="未命名的渐变_31" x1="184.64" y1="266.36" x2="184.64" y2="70.71" xlink:href="#未命名的渐变_30"/></defs><polygon class="cls-1" points="340.13 185.17 281.89 185.17 262.46 218.81 320.69 218.81 330.4 235.64 213.79 235.64 233.23 201.98 252.66 168.32 272.1 134.65 291.53 168.32 330.4 168.32 291.53 100.99 272.1 67.33 252.66 33.66 233.23 0 213.79 33.66 194.35 67.33 174.92 33.66 155.48 0 136.05 33.66 0 269.31 38.87 269.31 155.48 67.33 174.92 100.99 77.74 269.31 116.61 269.31 194.35 134.65 213.79 100.99 233.23 67.33 252.66 100.99 233.23 134.65 213.79 168.32 155.48 269.31 188.34 269.31 194.35 269.31 349.84 269.31 359.87 269.31 388.71 269.31 340.13 185.17"/><polygon class="cls-2" points="155.48 67.33 38.87 269.31 77.74 269.31 174.92 100.99 155.48 67.33"/><polygon class="cls-3" points="233.23 67.33 213.79 100.99 194.35 134.65 116.61 269.31 155.48 269.31 213.79 168.32 233.23 134.65 252.66 100.99 233.23 67.33"/></svg>